{
	"asset":{
		"generator":"Khronos glTF Blender I/O v4.0.44",
		"version":"2.0"
	},
	"scene":0,
	"scenes":[
		{
			"name":"Scene",
			"nodes":[
				0
			]
		}
	],
	"nodes":[
		{
			"mesh":0,
			"name":"Cube",
			"translation":[
				-0.04116973280906677,
				0.013986706733703613,
				-0.03177076578140259
			]
		}
	],
	"materials":[
		{
			"doubleSided":true,
			"name":"Material",
			"pbrMetallicRoughness":{
				"baseColorFactor":[
					1,
					0.8558268547058105,
					0.9975971579551697,
					1
				],
				"metallicFactor":0
			}
		}
	],
	"meshes":[
		{
			"name":"Cube.001",
			"primitives":[
				{
					"attributes":{
						"POSITION":0,
						"NORMAL":1
					},
					"indices":2,
					"material":0
				}
			]
		}
	],
	"accessors":[
		{
			"bufferView":0,
			"componentType":5126,
			"count":18434,
			"max":[
				1.070404052734375,
				1.060348629951477,
				1.0416202545166016
			],
			"min":[
				-0.9542429447174072,
				-0.9014174342155457,
				-0.9270955920219421
			],
			"type":"VEC3"
		},
		{
			"bufferView":1,
			"componentType":5126,
			"count":18434,
			"type":"VEC3"
		},
		{
			"bufferView":2,
			"componentType":5123,
			"count":110592,
			"type":"SCALAR"
		}
	],
	"bufferViews":[
		{
			"buffer":0,
			"byteLength":221208,
			"byteOffset":0,
			"target":34962
		},
		{
			"buffer":0,
			"byteLength":221208,
			"byteOffset":221208,
			"target":34962
		},
		{
			"buffer":0,
			"byteLength":221184,
			"byteOffset":442416,
			"target":34963
		}
	],
	"buffers":[
		{
			"byteLength":663600,
			"uri":"marshmallow2.bin"
		}
	]
}
